<?xml version="1.0" standalone="no"?><!DOCTYPE svg PUBLIC "-//W3C//DTD SVG 1.1//EN" "http://www.w3.org/Graphics/SVG/1.1/DTD/svg11.dtd"><svg t="1583208535165" class="icon" viewBox="0 0 1024 1024" version="1.1" xmlns="http://www.w3.org/2000/svg" p-id="6609" width="600" height="600" xmlns:xlink="http://www.w3.org/1999/xlink"><defs><style type="text/css"></style></defs><path d="M956.28 333.86a484.48 484.48 0 1 0 38 188 481.35 481.35 0 0 0-38-188zM765.6 616l-18.91 72a96.75 96.75 0 0 1-93.52 72.13H590.5a81.34 81.34 0 0 1-81.25-81.25V530.7c-12.37 38.21-29.22 73-50.35 103.86-36.41 53.14-85.31 94.28-145.35 122.28A35 35 0 1 1 284 693.41c80.12-37.37 134.25-102 161.22-192.28H290.75a35 35 0 0 1 0-70h169.11a501.73 501.73 0 0 0 3.8-77.5H339.25a35 35 0 0 1 0-70h343a35 35 0 0 1 0 70H533.73a568.85 568.85 0 0 1-3.35 77.5h201.37a35 35 0 0 1 0 70h-152.5v177.75a11.26 11.26 0 0 0 11.25 11.25h62.67A26.71 26.71 0 0 0 679 670.21l18.91-72A35 35 0 0 1 765.6 616z" fill="#515151" p-id="6610"></path></svg>